<?xml version="1.0" standalone="no"?>
<!DOCTYPE svg PUBLIC "-//W3C//DTD SVG 20010904//EN"
 "http://www.w3.org/TR/2001/REC-SVG-20010904/DTD/svg10.dtd">
<svg version="1.0" xmlns="http://www.w3.org/2000/svg"
 width="120.000000pt" height="120.000000pt" viewBox="0 0 120.000000 120.000000"
 preserveAspectRatio="xMidYMid meet">
<metadata>
Created by potrace 1.14, written by Peter Selinger 2001-2017
</metadata>
<g transform="translate(0.000000,120.000000) scale(0.100000,-0.100000)"
fill="#000000" stroke="none">
<path d="M0 600 l0 -600 600 0 600 0 0 600 0 600 -600 0 -600 0 0 -600z m655
356 c22 -52 5 -91 -75 -173 -64 -65 -68 -72 -43 -70 20 2 32 -6 49 -30 l22
-33 7 27 c3 14 19 42 36 62 16 20 29 41 29 48 0 18 17 16 24 -3 10 -26 7 -52
-7 -61 -26 -16 -57 -66 -57 -92 -1 -24 -2 -25 -14 -8 -11 14 -15 15 -19 4 -3
-8 -1 -20 4 -28 13 -21 11 -36 -7 -53 -21 -22 -63 -20 -98 3 l-29 20 41 -6
c27 -4 47 -1 57 7 19 16 20 34 0 26 -8 -3 -21 4 -29 16 -13 19 -13 22 7 39 19
16 19 18 3 12 -13 -4 -24 1 -36 17 l-18 23 -17 -33 c-11 -21 -15 -44 -11 -63
5 -25 4 -28 -9 -17 -17 14 -20 66 -5 105 6 15 49 67 96 116 85 88 86 90 82
134 -2 25 -2 45 0 45 2 0 9 -15 17 -34z m45 -77 c0 -29 -23 -69 -59 -103 -17
-17 -31 -36 -31 -43 0 -15 -16 -17 -25 -3 -8 13 11 47 51 92 19 21 36 49 40
63 7 28 24 24 24 -6z m50 -228 c0 -29 -6 -40 -88 -149 -49 -66 -61 -102 -33
-102 15 0 89 103 97 134 7 30 19 34 28 10 9 -24 -2 -53 -36 -96 -16 -21 -27
-39 -24 -39 3 -1 11 -3 16 -4 6 -1 16 -3 23 -4 25 -3 -18 -21 -50 -21 -18 0
-33 -5 -33 -11 0 -6 24 -10 63 -9 80 2 85 1 66 -10 -9 -5 -43 -12 -75 -16 -33
-4 -64 -11 -70 -16 -13 -10 -24 11 -24 47 0 13 -4 27 -10 30 -6 4 -9 -18 -7
-59 1 -45 6 -66 15 -66 6 0 12 6 12 14 0 9 20 15 68 19 37 3 69 3 72 1 9 -10
-26 -23 -77 -30 -29 -3 -57 -12 -63 -19 -9 -11 -16 -11 -38 1 -15 8 -39 14
-53 14 -34 0 -89 19 -89 32 0 5 8 7 18 4 35 -10 107 -11 110 -1 2 6 -27 16
-65 23 -72 15 -119 40 -50 28 41 -8 77 0 77 15 0 5 -10 9 -23 9 -13 0 -32 7
-43 15 -17 13 -15 14 34 15 35 0 52 4 52 13 0 6 32 56 71 111 74 103 99 151
92 176 -2 8 5 4 16 -9 12 -13 21 -35 21 -50z"/>
</g>
</svg>
